<?xml version="1.0" standalone="no"?>
<!DOCTYPE svg PUBLIC "-//W3C//DTD SVG 20010904//EN"
 "http://www.w3.org/TR/2001/REC-SVG-20010904/DTD/svg10.dtd">
<svg version="1.0" xmlns="http://www.w3.org/2000/svg"
 width="700.000000pt" height="700.000000pt" viewBox="0 0 700.000000 700.000000"
 preserveAspectRatio="xMidYMid meet">
<metadata>
Created by potrace 1.14, written by Peter Selinger 2001-2017
</metadata>
<g transform="translate(0.000000,700.000000) scale(0.100000,-0.100000)"
fill="#000000" stroke="none">
<path d="M5121 6310 c-128 -18 -304 -85 -413 -158 -38 -25 -40 -25 -66 -9 -86
55 -196 100 -277 112 -59 9 -195 7 -233 -4 -18 -5 -35 -10 -37 -10 -22 -1
-100 -31 -145 -54 -96 -51 -180 -125 -240 -212 -30 -44 -89 -161 -94 -187 -2
-7 -6 -29 -10 -48 -12 -59 -14 -74 -15 -98 -1 -22 -2 -22 -36 -8 -120 51 -330
50 -465 0 -228 -86 -385 -262 -450 -504 -13 -47 -18 -223 -8 -275 22 -114 67
-217 136 -308 l52 -67 -104 -173 c-57 -94 -159 -264 -227 -377 -67 -113 -128
-212 -134 -220 -7 -8 -23 -35 -36 -60 -13 -25 -26 -47 -29 -50 -5 -4 -116
-188 -241 -398 -25 -42 -177 -295 -339 -562 -327 -542 -427 -707 -636 -1055
-79 -132 -148 -247 -153 -255 -44 -69 -249 -412 -262 -439 -51 -105 46 -232
161 -211 20 4 188 98 385 217 193 116 546 329 785 473 239 145 532 321 650
392 118 71 301 182 405 245 105 63 204 123 220 133 27 16 701 422 1039 626 76
46 140 84 142 84 3 0 34 -22 70 -50 172 -132 386 -174 599 -120 93 24 131 41
217 97 138 90 244 243 288 413 26 100 22 276 -8 368 -11 34 -19 62 -18 62 0 1
19 3 41 6 275 36 497 226 571 489 48 172 16 384 -80 533 l-34 53 34 51 c168
249 206 602 98 903 -116 321 -389 560 -734 641 -79 19 -281 26 -369 14z"/>
</g>
</svg>
